<?xml version="1.0" encoding="UTF-8" standalone="no"?>
<svg width="24" height="24" viewBox="0 0 24 24" fill="none" xmlns="http://www.w3.org/2000/svg">
    <path d="M21.7428 12.2242C21.7428 11.4451 21.6776 10.6659 21.5375 9.90674H12.2446V13.8041H17.6086C17.3936 14.9578 16.7583 15.9919 15.8293 16.7159V19.1156H19.1391C21.0624 17.3375 21.7428 14.9578 21.7428 12.2242Z" fill="#4285F4"/>
    <path d="M12.2446 22C14.9782 22 17.2678 21.0761 19.1391 19.1156L15.8293 16.7159C14.9782 17.2829 13.7694 17.6303 12.2446 17.6303C9.51095 17.6303 7.21133 15.8522 6.41724 13.4725H3.0423V15.9372C4.89361 19.5181 8.32183 22 12.2446 22Z" fill="#34A853"/>
    <path d="M6.41724 13.4725C6.07223 12.4384 6.07223 11.3398 6.41724 10.3057V7.84097H3.0423C1.82349 10.3057 1.82349 13.4725 3.0423 15.9372L6.41724 13.4725Z" fill="#FBBC04"/>
    <path d="M12.2446 6.36967C13.6993 6.35967 15.1089 6.89666 16.1831 7.84097L19.1391 4.88432C17.2127 3.07622 14.7779 2 12.2446 2C8.32183 2 4.89361 4.48191 3.0423 7.84097L6.41724 10.3057C7.21133 7.92597 9.51095 6.36967 12.2446 6.36967Z" fill="#EA4335"/>
</svg> 